<?xml version="1.0" standalone="no"?>
<!DOCTYPE svg PUBLIC "-//W3C//DTD SVG 20010904//EN"
 "http://www.w3.org/TR/2001/REC-SVG-20010904/DTD/svg10.dtd">
<svg version="1.0" xmlns="http://www.w3.org/2000/svg"
 width="152.000000pt" height="152.000000pt" viewBox="0 0 152.000000 152.000000"
 preserveAspectRatio="xMidYMid meet">

<g transform="translate(0.000000,152.000000) scale(0.100000,-0.100000)"
fill="#000000" stroke="none">
<path d="M710 773 c-57 -175 -105 -324 -108 -331 -3 -10 8 -12 49 -10 l54 3
107 320 c58 176 107 323 107 328 1 4 -23 7 -52 7 l-53 0 -104 -317z"/>
<path d="M230 936 c-307 -176 -307 -171 5 -353 116 -68 213 -123 218 -123 4 0
7 36 7 79 l0 79 -117 66 c-65 36 -125 69 -133 74 -11 7 8 21 79 57 52 26 112
58 133 71 l38 24 0 75 c0 41 -3 75 -8 75 -4 0 -104 -56 -222 -124z"/>
<path d="M1060 981 l0 -79 118 -66 c64 -36 124 -69 132 -74 11 -7 -8 -21 -79
-57 -52 -26 -112 -58 -133 -71 l-38 -24 0 -75 c0 -41 3 -75 8 -75 4 0 104 56
222 124 307 176 307 171 -5 353 -116 68 -213 123 -217 123 -5 0 -8 -36 -8 -79z"/>
</g>
</svg>
